<svg version="1.1" xmlns="http://www.w3.org/2000/svg" viewBox="0 0 1024 1024">
  <!-- Background -->
  <rect width="1024" height="1024" fill="#1a1a2e"/>

  <!-- Cybox Logo centered and scaled -->
  <g transform="translate(220, 270) scale(18.5)">
    <!-- C shape -->
    <path fill="#ffffff" d="M11.5,0h-0.1C9,0,6.8,0.5,4.9,1.6c-1.8,1-3.3,2.7-4.3,5C0.4,7,0.3,7.5,0.1,8.1C0,8.5,0,9,0,9.5v12.6
        c0,0.4,0.1,0.9,0.2,1.5c0.1,0.4,0.2,0.9,0.4,1.3c0.6,1.6,1.5,2.9,2.6,3.9s2.4,1.7,3.8,2.1c1.5,0.5,2.9,0.7,4.4,0.7h0.2
        c1.4,0,2.7-0.2,4.1-0.6l0,0c1.3-0.3,2.5-1,3.7-1.9c1-0.8,1.9-1.9,2.6-3.3l0.4-0.6l-5.3-3.4c0,0.2-0.1,0.6-0.3,1
        c-0.3,0.7-0.7,1.2-1.2,1.6c-0.6,0.4-1.2,0.7-2,0.9c-0.8,0.2-1.5,0.3-2.3,0.3s-1.4-0.1-2.1-0.3c-0.7-0.3-1.3-0.6-1.9-1l0,0
        c-0.5-0.4-0.9-1.1-1.1-1.5c0-0.2-0.1-0.6-0.1-1.3V10.4c0-0.9,0.1-1.6,0.2-2s0.5-0.8,1-1.2c0.5-0.4,1.1-0.8,1.9-1
        s1.5-0.3,2.1-0.3s1.3,0.1,2,0.3c0.7,0.2,1.4,0.5,2,1s1.1,1.2,1.6,2.3l5.7-2l-0.3-0.7C21.7,5.3,20.8,4,19.7,3S17.4,1.3,16,0.9
        C14.5,0.2,13,0,11.5,0z"/>
    <!-- Dot -->
    <path fill="#4fc3f7" d="M31.2,3c0-0.8-0.3-1.6-0.9-2.1S29,0,28.1,0c-0.8,0-1.6,0.3-2.1,0.9S25,2.2,25,3c0,0.9,0.3,1.6,0.9,2.2
        c0.6,0.6,1.3,0.9,2.1,0.9c0.9,0,1.6-0.3,2.2-0.9C30.9,4.6,31.2,3.9,31.2,3z"/>
  </g>
</svg>
